<svg width="177" height="44" fill="none" xmlns="http://www.w3.org/2000/svg"><path d="M22.776 17.432c1.984.608 3.504 1.632 4.56 3.072 1.056 1.408 1.584 3.152 1.584 5.232 0 1.856-.496 3.488-1.488 4.896-.96 1.376-2.352 2.448-4.176 3.216C21.464 34.616 19.352 35 16.92 35H4.152c-1.312 0-2.32-.352-3.024-1.056C.424 33.24.072 32.232.072 30.92V5.24c0-1.312.352-2.32 1.056-3.024.704-.704 1.712-1.056 3.024-1.056H16.44c3.552 0 6.368.8 8.448 2.4C27 5.128 28.056 7.256 28.056 9.944c0 1.728-.464 3.264-1.392 4.608-.928 1.312-2.224 2.272-3.888 2.88zM8.664 14.456h6.288c1.664 0 2.88-.256 3.648-.768.768-.512 1.152-1.328 1.152-2.448 0-1.184-.384-2.048-1.152-2.592-.768-.544-1.984-.816-3.648-.816H8.664v6.624zm7.152 13.872c1.76 0 3.008-.272 3.744-.816.768-.576 1.152-1.504 1.152-2.784 0-1.28-.384-2.192-1.152-2.736-.736-.576-1.984-.864-3.744-.864H8.664v7.2h7.152zM43.863 10.808c3.648 0 6.336.88 8.064 2.64 1.76 1.728 2.64 4.368 2.64 7.92V31.4c0 1.216-.368 2.176-1.104 2.88-.704.672-1.696 1.008-2.976 1.008-1.12 0-2.048-.32-2.784-.96-.704-.64-1.088-1.504-1.152-2.592a5.313 5.313 0 01-2.256 2.688c-1.056.64-2.32.96-3.792.96-1.632 0-3.104-.32-4.416-.96-1.312-.672-2.352-1.584-3.12-2.736-.736-1.184-1.104-2.512-1.104-3.984 0-1.696.432-3.04 1.296-4.032.896-1.024 2.304-1.76 4.224-2.208 1.92-.448 4.512-.672 7.776-.672h1.296v-.576c0-1.12-.256-1.92-.768-2.4-.512-.512-1.376-.768-2.592-.768-1.312 0-3.232.448-5.76 1.344-.736.256-1.36.384-1.872.384-.8 0-1.44-.288-1.92-.864-.48-.576-.72-1.328-.72-2.256 0-.704.144-1.28.432-1.728.288-.448.752-.848 1.392-1.2 1.12-.576 2.528-1.04 4.224-1.392a24.525 24.525 0 014.992-.528zm-1.344 18.864c1.152 0 2.096-.4 2.832-1.2.736-.832 1.104-1.888 1.104-3.168v-.576h-.768c-2.048 0-3.504.192-4.368.576-.864.352-1.296.96-1.296 1.824 0 .736.224 1.344.672 1.824.48.48 1.088.72 1.824.72zM75.003 10.808c2.048 0 3.856.496 5.424 1.488 1.568.992 2.784 2.416 3.648 4.272.896 1.824 1.344 3.952 1.344 6.384 0 2.432-.448 4.592-1.344 6.48-.864 1.888-2.096 3.36-3.696 4.416-1.568 1.024-3.36 1.536-5.376 1.536-1.568 0-3.008-.32-4.32-.96-1.28-.64-2.256-1.52-2.928-2.64-.096 1.088-.528 1.952-1.296 2.592-.736.608-1.712.912-2.928.912-1.28 0-2.304-.352-3.072-1.056-.736-.736-1.104-1.696-1.104-2.88V4.76c0-1.12.4-2.032 1.2-2.736.8-.736 1.856-1.104 3.168-1.104 1.248 0 2.256.336 3.024 1.008.768.672 1.152 1.568 1.152 2.688v9.552c.704-1.024 1.68-1.84 2.928-2.448 1.28-.608 2.672-.912 4.176-.912zM72.363 29c1.472 0 2.608-.512 3.408-1.536.8-1.056 1.2-2.56 1.2-4.512 0-1.856-.4-3.28-1.2-4.272-.768-.992-1.888-1.488-3.36-1.488-1.504 0-2.656.512-3.456 1.536-.8.992-1.2 2.432-1.2 4.32 0 1.92.4 3.392 1.2 4.416.8 1.024 1.936 1.536 3.408 1.536zM104.632 13.304c.352-.8.832-1.392 1.44-1.776a3.7 3.7 0 012.016-.576c1.056 0 2 .352 2.832 1.056.832.704 1.248 1.552 1.248 2.544 0 .544-.128 1.072-.384 1.584l-12.72 25.488c-.384.8-.896 1.392-1.536 1.776a3.7 3.7 0 01-2.016.576c-1.056 0-2-.352-2.832-1.056-.8-.672-1.2-1.504-1.2-2.496 0-.544.144-1.104.432-1.68l3.12-6.288-8.16-16.32c-.256-.576-.384-1.088-.384-1.536 0-1.024.448-1.888 1.344-2.592.896-.736 1.904-1.104 3.024-1.104.768 0 1.472.208 2.112.624.672.384 1.184.976 1.536 1.776l5.088 11.04 5.04-11.04zM119.464 35c-1.312 0-2.32-.352-3.024-1.056-.704-.704-1.056-1.712-1.056-3.024V5.24c0-1.312.352-2.32 1.056-3.024.704-.704 1.712-1.056 3.024-1.056h9.696c3.744 0 6.96.688 9.648 2.064 2.72 1.344 4.8 3.28 6.24 5.808 1.44 2.528 2.16 5.536 2.16 9.024 0 3.52-.72 6.56-2.16 9.12-1.408 2.528-3.472 4.464-6.192 5.808-2.688 1.344-5.92 2.016-9.696 2.016h-9.696zm9.072-7.104c3.296 0 5.76-.8 7.392-2.4 1.664-1.632 2.496-4.112 2.496-7.44 0-3.328-.832-5.792-2.496-7.392-1.632-1.6-4.096-2.4-7.392-2.4h-4.32v19.632h4.32zM163.837 35.384c-2.592 0-4.88-.496-6.864-1.488-1.952-1.024-3.472-2.464-4.56-4.32-1.056-1.856-1.584-4.032-1.584-6.528 0-2.496.528-4.656 1.584-6.48 1.088-1.856 2.608-3.28 4.56-4.272 1.952-.992 4.24-1.488 6.864-1.488 2.624 0 4.912.496 6.864 1.488s3.456 2.416 4.512 4.272c1.088 1.824 1.632 3.984 1.632 6.48 0 2.496-.544 4.672-1.632 6.528-1.056 1.856-2.56 3.296-4.512 4.32-1.952.992-4.24 1.488-6.864 1.488zm0-6.384c3.04 0 4.56-1.984 4.56-5.952s-1.52-5.952-4.56-5.952c-3.04 0-4.56 1.984-4.56 5.952s1.52 5.952 4.56 5.952z" fill="#5492E4"/></svg>